<svg height="32" width="32" xmlns="http://www.w3.org/2000/svg" xmlns:xlink="http://www.w3.org/1999/xlink"><linearGradient id="a" x1=".5" x2=".5" y1="0" y2="1"><stop offset="0" stop-color="#2948ff" /><stop offset="1" stop-color="#396afc" /></linearGradient><path d="m22.23561 27.72243c-.747 0-1.457-.185-2.122-.556-1.829-1.019-2.985-3.319-3.791-5.688-1.562 3.011-4.528 7.315-8.23 5.967-.872-.317-2.313-1.292-2.153-4.246.063-1.158.372-2.45.85-3.627-2.252-1.797-6.164-5.505-6.72-9.18497-.252-1.672.178-3.163 1.28-4.431 1.183-1.422 2.792-1.96 4.641-1.54 3.617.822 7.747 5.485 9.819 9.108 1.964-2.809 6.565-7.721 10.595-8.58 1.809-.386 3.379.075 4.534 1.336.694.758 1.41 2.134.875 4.386-.761 3.198-3.735 6.92997-5.837 8.94297.452 1.241.688 2.596.63 3.741-.105 2.107-1.091 3.567-2.773 4.107-.549.177-1.082.265-1.598.265zm-5.379-11.991c.07.201.13.393.175.57l.163.655c.67 2.701 1.792 7.224 3.922 8.409.612.343 1.295.384 2.086.13.832-.267 1.284-1.023 1.346-2.251.038-.758-.076-1.545-.28-2.274-.053.027-.102.05-.146.065-1.188.449-3.139.037-3.975-1.186-.315-.462-.896-1.702.51-3.267.743-.764 1.677-.957 2.587-.56.664.289 1.264.879 1.768 1.635 1.786-1.859 4.378-5.12897 4.857-7.76197.178-.975.031-1.703-.45-2.228-.662-.721-1.481-.947-2.586-.713-4.1.88-9.478 7.54997-9.977 8.77697zm-8.333 5.072c-.211.595-.382 1.249-.474 1.938-.075.559-.243 2.407.747 2.768 2.721.989 5.658-4.606 6.651-7.043-.089-.352-.173-.688-.253-1.013l-.162-.647c-.704-2.797-5.652-9.50697-9.5-10.38097-1.086-.248-1.917.028-2.614.866-.711.819-.972 1.726-.812 2.789.431 2.851 3.651 5.96997 5.656 7.62397.647-.969 1.418-1.679 2.232-1.88.458-.112 1.611-.222 2.459 1.198.014.022.026.048.039.072.794 1.611.28 2.858-.466 3.487-.922.781-2.333.854-3.503.222zm.89-1.864c.488.306 1.035.279 1.285.068.267-.225.079-.724-.035-.965-.098-.157-.174-.219-.196-.229-.212.024-.624.441-1.054 1.126zm12.911-1.055c-.042 0-.084.028-.163.109-.052.059-.44.508-.312.695.239.352 1.164.562 1.545.421.021-.013.048-.025.075-.044-.348-.59-.727-1.012-1.049-1.152-.038-.016-.067-.029-.096-.029z" fill="url(#a)" /></svg>
